<svg width="29" height="150" viewBox="0 0 29 150" fill="none" xmlns="http://www.w3.org/2000/svg">
<path d="M25.0588 1.48625L22.1023 36.4488C22.0624 37.3035 21.1212 37.3035 21.0813 36.4488L19.0859 1.02066C18.9828 -0.21316 17.6559 -0.256402 17.5096 0.970764L14.5996 36.4488C14.5564 37.3035 13.6185 37.3035 13.5786 36.4488L10.6886 0.970764C10.5423 -0.256402 9.21538 -0.21316 9.11229 1.02066L7.08363 36.4488C7.04372 37.3035 6.10589 37.3035 6.06265 36.4488L3.12943 1.48625C2.89663 0.269058 1.55973 0.488547 1.55973 1.75229L0 44.3207C0 49.6417 3.21591 53.9651 7.18009 53.9651C7.66642 53.965 8.14788 54.0618 8.59633 54.25C9.04478 54.4382 9.45121 54.714 9.79183 55.0611C10.1325 55.4082 10.4004 55.8198 10.5801 56.2717C10.7598 56.7236 10.8476 57.2069 10.8383 57.6931L9.22202 145.048C9.22202 146.339 9.73498 147.578 10.648 148.491C11.5611 149.404 12.7995 149.917 14.0908 149.917C15.3821 149.917 16.6204 149.404 17.5335 148.491C18.4466 147.578 18.9595 146.339 18.9595 145.048L17.2734 57.6865C17.2637 57.1999 17.3511 56.7164 17.5306 56.264C17.7101 55.8117 17.978 55.3998 18.3187 55.0523C18.6594 54.7048 19.0659 54.4288 19.5146 54.2404C19.9633 54.052 20.445 53.955 20.9316 53.9551H20.9848C24.9523 53.9551 28.1649 49.6317 28.1649 44.3107L26.6285 1.74232C26.6285 0.495198 25.2916 0.269058 25.0588 1.48625Z" fill="#C4C6C8"/>
<path d="M14.031 45.4015C12.019 46.7018 10.5324 48.6939 8.51045 49.9776C7.87691 50.3824 7.20114 50.7169 6.49512 50.9753C6.96494 51.1261 7.45498 51.2046 7.94842 51.2081H20.2167C23.7419 51.2081 26.5986 47.3736 26.5986 42.6478V40.1669C25.8453 40.7887 25.0202 41.3179 24.1409 41.7433C20.8951 43.283 17.044 43.4493 14.031 45.4015Z" fill="#B5B7BA"/>
</svg>
