<svg width="40" height="153" viewBox="0 0 40 153" fill="none" xmlns="http://www.w3.org/2000/svg">
<path d="M29.2128 4.83882C25.0358 -1.61294 15.4845 -1.61294 11.3074 4.83882C4.52093 15.3189 0.919025 27.542 0.938063 40.0276C0.938063 40.6727 0.938069 41.3179 0.964674 41.9598C1.20412 50.081 5.4011 55.5218 10.9416 58.2887C14.4668 60.048 16.7649 63.5665 16.6983 67.5041L15.3847 148.048C15.3732 148.694 15.4906 149.336 15.73 149.937C15.9693 150.537 16.3259 151.084 16.7788 151.545C17.2318 152.006 17.772 152.372 18.368 152.622C18.964 152.871 19.6039 153 20.2501 153C20.8973 152.999 21.5379 152.87 22.1345 152.619C22.7311 152.368 23.2719 152.001 23.7253 151.539C24.1788 151.078 24.5358 150.53 24.7756 149.929C25.0154 149.328 25.1333 148.685 25.1222 148.038L23.7454 67.5573C23.6756 63.6064 25.9869 60.0779 29.5287 58.322C35.0959 55.5617 39.3128 50.1143 39.5489 41.9731C39.5688 41.3312 39.5788 40.686 39.5788 40.0409C39.6037 27.5508 36.0027 15.3221 29.2128 4.83882Z" fill="#C4C6C8"/>
<path d="M28.3547 7.30975C27.4092 5.84187 26.0749 4.66525 24.5002 3.91093C29.9217 12.9766 32.7771 23.3453 32.7612 33.9083C32.7612 34.4903 32.7612 35.069 32.7346 35.6476C32.2723 51.4146 15.2849 56.0006 5.20483 49.4092C12.9436 62.5389 37.1311 59.6755 37.6898 40.8157C37.7098 40.237 37.7164 39.6551 37.7164 39.0731C37.7345 27.8026 34.4825 16.7689 28.3547 7.30975Z" fill="#B5B7BA"/>
</svg>
